<?xml version="1.0" encoding="UTF-8"?>
<svg xmlns="http://www.w3.org/2000/svg" xmlns:xlink="http://www.w3.org/1999/xlink" width="20px" height="27px" viewBox="0 0 20 26" version="1.1">
<g id="surface1">
<path style=" stroke:none;fill-rule:nonzero;fill:rgb(0%,0%,0%);fill-opacity:1;" d="M 8.972656 25.476562 C 1.40625 14.777344 0 13.679688 0 9.75 C 0 4.363281 4.476562 0 10 0 C 15.523438 0 20 4.363281 20 9.75 C 20 13.679688 18.59375 14.777344 11.027344 25.476562 C 10.53125 26.175781 9.46875 26.175781 8.972656 25.476562 Z M 10 13.8125 C 12.300781 13.8125 14.167969 11.992188 14.167969 9.75 C 14.167969 7.507812 12.300781 5.6875 10 5.6875 C 7.699219 5.6875 5.832031 7.507812 5.832031 9.75 C 5.832031 11.992188 7.699219 13.8125 10 13.8125 Z M 10 13.8125 "/>
</g>
</svg>
