<?xml version="1.0" encoding="UTF-8"?>
<svg xmlns="http://www.w3.org/2000/svg" xmlns:xlink="http://www.w3.org/1999/xlink" width="20px" height="20px" viewBox="0 0 20 20" version="1.1">
<g id="surface1">
<path style=" stroke:none;fill-rule:nonzero;fill:rgb(0%,0%,0%);fill-opacity:1;" d="M 19.429688 14.132812 L 15.054688 12.257812 C 14.671875 12.09375 14.222656 12.203125 13.960938 12.527344 L 12.023438 14.894531 C 8.980469 13.460938 6.535156 11.015625 5.101562 7.972656 L 7.46875 6.035156 C 7.792969 5.773438 7.902344 5.324219 7.738281 4.941406 L 5.863281 0.566406 C 5.683594 0.152344 5.230469 -0.078125 4.789062 0.0234375 L 0.726562 0.960938 C 0.300781 1.058594 0 1.4375 0 1.875 C 0 11.894531 8.121094 20 18.125 20 C 18.5625 20 18.941406 19.699219 19.039062 19.273438 L 19.976562 15.210938 C 20.078125 14.765625 19.847656 14.3125 19.429688 14.132812 Z M 19.429688 14.132812 "/>
</g>
</svg>
